# Blender 3.3.1
# www.blender.org
mtllib god rays.mtl
o Plane.002
v 0.047013 1.999881 -0.000000
v 0.310127 2.095647 -0.000000
v 0.498065 2.164052 -0.000000
v 2.377450 2.848093 -0.000000
v -2.566822 10.000000 0.000000
v -2.864792 10.000000 0.000000
v -0.225631 10.000000 0.000000
v -2.353987 10.000000 0.000000
vn -0.0000 -0.0000 1.0000
vt 0.000000 0.000000
vt 1.000000 0.000000
vt 0.000000 0.000000
vt 1.000000 0.000000
vt 1.000000 0.947256
vt 0.000000 0.958733
vt 1.000000 0.857083
vt 0.000000 0.939059
s 0
usemtl 
f 6/6/1 1/1/1 2/2/1 5/5/1
f 8/8/1 3/3/1 4/4/1 7/7/1
